<?xml version="1.0" encoding="UTF-8" standalone="no" ?>
<!DOCTYPE svg PUBLIC "-//W3C//DTD SVG 1.1//EN" "http://www.w3.org/Graphics/SVG/1.1/DTD/svg11.dtd">
<svg xmlns="http://www.w3.org/2000/svg" xmlns:xlink="http://www.w3.org/1999/xlink" version="1.1" width="1080" height="1080" viewBox="0 0 1080 1080" xml:space="preserve">
<desc>Created with Fabric.js 5.2.4</desc>
<defs>
</defs>
<g transform="matrix(1 0 0 1 540 540)" id="0654f4a6-8a10-4e4d-b9b2-1abb3a6d0679"  >
</g>
<g transform="matrix(1 0 0 1 540 540)" id="72feb214-5147-44a6-aaef-46eb71b050aa"  >
<rect style="stroke: none; stroke-width: 1; stroke-dasharray: none; stroke-linecap: butt; stroke-dashoffset: 0; stroke-linejoin: miter; stroke-miterlimit: 4; fill: rgb(255,255,255); fill-rule: nonzero; opacity: 1; visibility: hidden;" vector-effect="non-scaling-stroke"  x="-540" y="-540" rx="0" ry="0" width="1080" height="1080" />
</g>
<g transform="matrix(0.42 0 0 0.42 538.54 945.91)"  >
<path style="stroke: rgb(0,0,0); stroke-width: 0; stroke-dasharray: none; stroke-linecap: butt; stroke-dashoffset: 0; stroke-linejoin: miter; stroke-miterlimit: 4; fill: rgb(0,0,0); fill-rule: nonzero; opacity: 1;" vector-effect="non-scaling-stroke"  transform=" translate(-1312.61, -344.21)" d="M 32.989 490.982 L 63.063 490.982 L 63.063 512.538 L 73.8 512.538 L 77.352 406.375 L 85.26400000000001 406.375 L 85.26400000000001 404.276 L 87.28200000000001 402.25800000000004 L 87.28200000000001 397.01000000000005 L 90.108 397.01000000000005 L 90.108 391.6820000000001 L 92.49000000000001 389.30000000000007 L 107.304 389.30000000000007 L 107.304 392.4890000000001 L 111.825 392.4890000000001 L 111.825 394.2650000000001 L 116.346 394.2650000000001 L 116.346 397.6560000000001 L 121.351 397.6560000000001 L 121.351 403.79200000000014 L 129.828 403.79200000000014 L 127.648 521.0960000000001 L 142.987 521.0960000000001 L 142.987 525.2940000000001 L 150.414 525.2940000000001 L 152.83599999999998 430.1910000000001 L 154.208 430.1910000000001 L 154.208 428.2530000000001 L 156.63 428.2530000000001 L 156.63 424.8620000000001 L 161.716 424.8620000000001 L 161.716 418.2420000000001 L 165.43 418.2420000000001 L 165.43 414.0440000000001 L 170.112 412.9940000000001 L 170.112 410.6530000000001 L 183.51399999999998 410.6530000000001 L 183.51399999999998 413.72100000000006 L 191.34499999999997 413.72100000000006 L 191.34499999999997 417.75800000000004 L 194.17099999999996 417.75800000000004 L 194.17099999999996 408.15100000000007 L 196.67399999999998 408.15100000000007 L 196.67399999999998 391.35900000000004 L 193.44499999999996 391.35900000000004 L 193.44499999999996 353.09200000000004 L 209.34899999999996 350.67 L 211.52899999999997 350.67 L 211.52899999999997 348.248 L 215.64599999999996 348.248 L 215.64599999999996 351.235 L 218.87499999999997 351.235 L 218.87499999999997 348.248 L 222.66899999999998 348.248 L 222.66899999999998 349.29699999999997 L 225.898 349.29699999999997 L 225.898 351.719 L 243.578 351.719 L 243.578 363.264 L 239.703 363.264 L 239.703 388.937 L 242.77100000000002 388.937 L 242.77100000000002 408.716 L 238.573 408.716 L 238.573 453.522 L 240.591 453.522 L 240.591 492.274 L 236.958 492.274 L 236.958 549.271 L 239.219 549.271 L 239.219 554.519 L 246.323 554.519 L 246.323 551.451 L 249.068 551.451 L 249.068 534.174 L 268.767 534.174 L 268.767 528.361 L 283.622 528.361 L 285.237 461.272 L 286.60900000000004 460.707 L 286.85100000000006 432.37 L 307.27600000000007 429.544 L 373.5570000000001 431.239 L 373.3960000000001 484.60299999999995 L 378.15900000000005 484.60299999999995 L 378.15900000000005 489.68899999999996 L 385.90900000000005 489.68899999999996 L 385.90900000000005 480.001 L 388.25000000000006 480.001 L 388.25000000000006 476.852 L 390.99500000000006 476.852 L 390.99500000000006 480.001 L 396.24300000000005 480.001 L 396.24300000000005 470.394 L 397.45400000000006 468.456 L 403.6700000000001 468.456 L 420.94700000000006 468.456 L 420.94700000000006 473.461 L 425.4680000000001 473.461 L 425.4680000000001 489.85 L 434.4290000000001 489.85 C 434.4290000000001 489.85 434.34800000000007 495.98600000000005 434.4290000000001 495.98600000000005 C 434.5100000000001 495.98600000000005 441.4530000000001 495.98600000000005 441.4530000000001 495.98600000000005 L 441.4530000000001 501.39500000000004 L 444.9240000000001 501.39500000000004 L 446.1350000000001 417.19100000000003 L 448.2340000000001 417.19100000000003 L 448.2340000000001 405.24300000000005 L 451.1400000000001 405.24300000000005 L 451.1400000000001 393.2950000000001 L 460.3430000000001 393.2950000000001 L 460.3430000000001 382.72 L 463.8950000000001 382.72 L 463.8950000000001 384.173 L 465.4290000000001 384.173 L 465.5900000000001 382.235 L 466.88200000000006 382.235 L 466.88200000000006 383.688 L 468.0930000000001 383.688 L 468.0930000000001 381.912 L 470.19200000000006 381.912 L 470.19200000000006 383.769 L 471.16100000000006 383.769 L 471.16100000000006 381.266 L 486.0160000000001 381.266 L 486.0160000000001 384.09200000000004 L 488.4380000000001 384.09200000000004 L 488.4380000000001 381.42800000000005 L 490.6180000000001 381.42800000000005 L 490.6180000000001 384.0110000000001 L 494.0090000000001 384.0110000000001 L 494.0090000000001 381.6700000000001 L 495.78500000000014 381.6700000000001 L 495.78500000000014 384.0110000000001 L 500.87100000000015 384.0110000000001 L 500.87100000000015 381.75000000000006 L 501.67800000000017 381.75000000000006 L 501.67800000000017 384.1720000000001 L 506.28000000000014 384.1720000000001 L 506.28000000000014 382.1540000000001 L 507.7330000000001 382.1540000000001 L 507.7330000000001 384.3340000000001 L 517.5020000000001 384.3340000000001 L 517.5020000000001 382.31600000000014 L 519.5200000000001 382.31600000000014 L 519.5200000000001 384.73800000000017 L 523.5570000000001 384.73800000000017 L 523.5570000000001 382.47700000000015 L 525.6560000000002 382.47700000000015 L 525.6560000000002 384.81800000000015 L 540.1880000000002 384.81800000000015 L 540.1880000000002 389.09700000000015 L 547.3730000000002 389.09700000000015 L 549.2300000000001 307.8000000000002 L 544.3860000000001 305.21700000000016 L 549.2300000000001 303.52200000000016 L 549.2300000000001 292.78500000000014 L 548.0190000000001 292.78500000000014 L 548.0190000000001 273.00600000000014 L 554.8810000000001 273.00600000000014 L 554.8810000000001 270.0190000000001 L 564.0040000000001 270.0190000000001 L 564.0040000000001 254.7610000000001 L 563.2 254.7610000000001 L 563.2 251.2900000000001 L 564.33 251.2900000000001 C 564.33 251.2900000000001 563.6030000000001 170.1540000000001 563.2810000000001 169.9920000000001 C 562.9590000000001 169.8300000000001 561.3430000000001 169.9920000000001 561.3430000000001 169.9920000000001 L 561.3430000000001 168.5390000000001 L 565.1370000000001 168.5390000000001 L 565.1370000000001 169.91100000000012 L 564.0880000000001 169.91100000000012 L 566.3480000000001 172.1720000000001 L 566.3480000000001 248.6260000000001 L 567.3170000000001 248.6260000000001 L 573.4530000000001 236.51600000000008 L 574.3410000000001 236.83900000000008 L 570.0620000000001 250.40200000000007 L 607.6030000000001 250.40200000000007 L 607.6030000000001 252.01700000000008 L 614.6270000000001 252.01700000000008 L 614.6270000000001 255.32700000000008 L 613.2550000000001 255.32700000000008 L 613.2550000000001 267.7600000000001 L 613.2550000000001 303.4440000000001 L 618.8260000000001 303.4440000000001 L 616.9690000000002 306.9150000000001 L 614.6280000000002 306.9150000000001 L 613.4980000000002 309.01400000000007 L 613.4980000000002 371.4200000000001 L 614.9510000000001 371.4200000000001 L 614.9510000000001 391.7650000000001 L 629.7250000000001 391.7650000000001 L 647.4860000000001 393.4600000000001 L 647.4860000000001 401.8560000000001 L 652.6530000000001 401.8560000000001 L 651.5230000000001 444.32100000000014 L 654.0260000000002 444.6440000000001 L 654.347 418 L 673.6419999999999 407.101 L 676.7909999999999 430.594 L 690.5959999999999 430.836 L 690.435 434.065 L 678.002 437.859 L 679.3739999999999 452.149 L 684.8639999999999 452.553 L 688.8199999999999 487.106 L 690.515 470.07099999999997 L 704.7239999999999 476.772 L 705.0469999999999 464.743 L 709.891 464.743 L 709.891 457.154 L 717.48 457.154 L 717.48 454.409 L 723.8580000000001 454.409 L 723.8580000000001 448.11199999999997 L 746.705 448.11199999999997 L 746.705 456.26599999999996 L 755.101 456.26599999999996 L 755.101 465.066 L 762.448 465.066 L 762.448 538.21 L 787.314 538.21 L 787.314 498.97400000000005 L 795.7909999999999 498.97400000000005 L 795.7909999999999 497.27900000000005 L 799.9889999999999 497.27900000000005 L 799.9889999999999 505.51400000000007 L 811.6139999999999 505.51400000000007 L 811.6139999999999 511.6500000000001 L 815.4079999999999 511.6500000000001 L 815.4079999999999 448.75900000000007 L 836.56 448.75900000000007 L 836.56 396.68700000000007 L 839.386 396.68700000000007 L 839.386 345.5830000000001 L 841.646 345.5830000000001 L 843.584 312.4020000000001 L 844.6329999999999 312.3210000000001 L 844.391 308.6880000000001 L 845.602 308.6880000000001 L 849.639 268.0800000000001 L 870.629 264.6890000000001 L 931.34 267.0300000000001 L 935.538 310.9480000000001 L 938.041 311.0290000000001 L 937.7990000000001 343.8870000000001 L 940.1400000000001 343.8060000000001 L 939.171 395.7980000000001 L 941.754 395.87900000000013 L 941.027 483.07000000000016 L 947.486 485.4920000000002 L 947.89 492.27400000000017 L 952.8149999999999 488.15700000000015 L 952.8149999999999 451.82700000000017 L 966.6199999999999 451.82700000000017 L 966.459 517.3010000000002 L 970.819 517.3010000000002 L 970.819 491.38600000000014 L 975.4209999999999 491.38600000000014 L 975.4209999999999 494.53500000000014 L 983.4129999999999 494.53500000000014 L 984.4619999999999 458.44800000000015 L 985.7539999999999 494.45500000000015 L 991.9699999999999 494.45500000000015 L 991.9699999999999 497.0380000000002 L 993.8269999999999 497.0380000000002 L 993.9879999999998 491.5480000000002 L 996.9749999999998 491.5480000000002 L 996.9749999999998 521.8230000000002 L 1003.8369999999998 521.8230000000002 L 1003.8369999999998 513.9110000000002 L 1008.0349999999997 522.4690000000002 L 1009.8109999999997 522.4690000000002 L 1009.8109999999997 534.7400000000001 L 1011.7489999999997 534.7400000000001 L 1011.7489999999997 536.1930000000001 L 1013.4439999999997 536.1930000000001 L 1013.4439999999997 532.479 C 1013.4439999999997 532.479 1015.1389999999998 532.883 1015.1389999999998 532.479 C 1015.1389999999998 532.075 1015.1389999999998 528.3620000000001 1015.1389999999998 528.3620000000001 L 1019.3369999999998 528.3620000000001 L 1019.3369999999998 505.9990000000001 L 1024.8269999999998 508.4210000000001 L 1024.8269999999998 478.4690000000001 L 1032.6579999999997 478.4690000000001 L 1033.7879999999998 483.9590000000001 L 1037.9859999999999 483.9590000000001 L 1037.9859999999999 506.56400000000014 L 1039.924 506.56400000000014 L 1039.924 495.8270000000001 L 1057.443 495.8270000000001 L 1057.443 494.8580000000001 L 1060.43 494.8580000000001 L 1060.43 493.56600000000014 L 1063.336 493.56600000000014 L 1063.336 496.14900000000017 L 1068.584 496.14900000000017 L 1068.584 494.1310000000002 L 1073.67 494.1310000000002 L 1073.67 496.0690000000002 L 1088.2830000000001 496.0690000000002 L 1088.2830000000001 478.63 C 1088.2830000000001 478.63 1085.5790000000002 473.503 1088.2830000000001 470.799 L 1095.065 470.799 L 1096.1950000000002 450.45399999999995 L 1096.1950000000002 470.47599999999994 C 1096.1950000000002 470.47599999999994 1098.6170000000002 473.78599999999994 1096.276 478.5489999999999 L 1096.357 510.27699999999993 L 1100.232 510.27699999999993 L 1100.232 502.4459999999999 L 1125.1779999999999 502.4459999999999 L 1125.1779999999999 492.7979999999999 L 1126.53 492.7979999999999 L 1126.53 488.8619999999999 L 1127.801 488.8619999999999 L 1127.801 492.4949999999999 L 1129.86 451.1399999999999 L 1130.889 492.6159999999999 L 1134.946 492.6159999999999 L 1134.946 502.4859999999999 L 1144.3919999999998 502.4859999999999 L 1144.3919999999998 515.8669999999998 L 1150.3259999999998 515.8669999999998 L 1150.3259999999998 526.4629999999999 L 1155.1699999999998 526.4629999999999 L 1155.1699999999998 522.3459999999999 L 1159.8319999999999 522.3459999999999 L 1161.7089999999998 472.6349999999999 L 1171.7599999999998 472.6349999999999 L 1170.9729999999997 511.7499999999999 L 1172.0629999999996 511.7499999999999 L 1172.0629999999996 492.2529999999999 L 1185.0809999999997 480.08299999999986 L 1187.8659999999998 480.08299999999986 L 1187.8659999999998 482.26299999999986 L 1189.9249999999997 482.26299999999986 L 1192.3469999999998 442.23999999999984 L 1193.3159999999998 479.53799999999984 L 1194.4669999999999 479.53799999999984 L 1194.4669999999999 476.1469999999998 L 1197.1309999999999 476.1469999999998 L 1200.522 471.9689999999998 L 1199.493 476.2069999999998 L 1200.886 512.9599999999998 L 1203.671 512.9599999999998 L 1203.671 498.7309999999998 L 1208.152 498.7309999999998 L 1208.152 495.2799999999998 L 1210.756 495.2799999999998 L 1210.756 494.1299999999998 L 1212.27 494.1299999999998 L 1212.27 491.10299999999984 L 1214.631 491.10299999999984 L 1214.631 493.7069999999998 L 1222.2 493.7069999999998 L 1222.2 491.5879999999998 L 1226.075 491.5879999999998 L 1226.075 493.8279999999998 L 1237.458 493.8279999999998 L 1237.458 505.3929999999998 L 1240.546 505.3929999999998 L 1240.546 510.9029999999998 L 1249.568 510.9029999999998 L 1249.568 516.5949999999998 L 1281.841 516.5949999999998 L 1281.841 521.7419999999998 L 1293.588 521.7419999999998 L 1293.588 526.2829999999999 L 1295.526 526.2829999999999 L 1295.526 516.8369999999999 L 1296.737 516.8369999999999 L 1296.737 514.3539999999999 L 1299.7640000000001 514.3539999999999 L 1299.7640000000001 508.6019999999999 L 1301.3990000000001 508.6019999999999 L 1301.3990000000001 506.4219999999999 L 1306.0610000000001 506.4219999999999 L 1306.0610000000001 510.17599999999993 L 1310.5420000000001 510.17599999999993 L 1310.5420000000001 524.708 L 1315.2040000000002 524.708 L 1315.2040000000002 514.838 L 1324.2860000000003 514.838 L 1324.2860000000003 522.831 C 1324.2860000000003 522.831 1326.8900000000003 522.528 1326.8900000000003 522.831 C 1326.8900000000003 523.134 1326.8900000000003 529.552 1326.8900000000003 529.552 L 1328.6460000000004 529.552 L 1328.6460000000004 517.26 L 1329.6150000000005 517.26 L 1329.6150000000005 513.203 L 1330.8260000000005 513.203 L 1330.8260000000005 507.693 C 1330.8260000000005 507.693 1333.6720000000005 507.75399999999996 1333.6720000000005 507.693 C 1333.6720000000005 507.632 1333.6720000000005 504 1333.6720000000005 504 L 1335.3070000000005 504 L 1335.3070000000005 506.301 L 1338.3340000000005 506.301 L 1338.5760000000005 431.21999999999997 L 1353.2890000000004 431.21999999999997 L 1353.2890000000004 524.6479999999999 L 1354.4400000000005 524.6479999999999 L 1354.4400000000005 535.7289999999999 L 1365.0970000000004 535.7289999999999 L 1365.0970000000004 543.055 L 1366.6710000000005 543.055 L 1366.6710000000005 534.76 L 1378.5990000000006 532.822 L 1383.0190000000007 532.822 L 1383.0190000000007 475.785 L 1384.1090000000006 475.785 L 1384.1090000000006 457.56 L 1384.7750000000005 456.894 L 1384.7750000000005 449.749 L 1387.3180000000004 449.749 L 1387.3180000000004 445.208 L 1389.8610000000003 445.208 L 1389.8610000000003 443.21000000000004 L 1390.8900000000003 443.21000000000004 L 1390.8900000000003 441.696 L 1391.8590000000004 441.696 L 1391.8590000000004 440.24300000000005 L 1393.1300000000003 440.24300000000005 L 1394.2500000000002 439.12300000000005 L 1394.2500000000002 436.36800000000005 L 1395.0070000000003 436.36800000000005 L 1395.0070000000003 432.37200000000007 L 1395.7340000000004 432.37200000000007 L 1395.7340000000004 428.31500000000005 L 1396.3390000000004 428.31500000000005 L 1396.3390000000004 418.44500000000005 L 1396.6120000000003 418.17300000000006 L 1396.6120000000003 416.08400000000006 L 1397.6110000000003 416.08400000000006 L 1397.6110000000003 411.18000000000006 L 1396.8840000000002 411.18000000000006 L 1396.8840000000002 405.18600000000004 L 1397.7920000000001 405.18600000000004 L 1398.5790000000002 385.20500000000004 L 1399.3660000000002 410.21200000000005 L 1399.8810000000003 410.72700000000003 L 1399.8810000000003 414.99600000000004 L 1400.7140000000004 415.82900000000006 L 1400.7140000000004 418.6290000000001 L 1401.9100000000003 418.6290000000001 L 1401.9100000000003 428.68000000000006 L 1402.7580000000003 428.68000000000006 L 1402.7580000000003 433.0400000000001 L 1402.7580000000003 437.7630000000001 L 1404.3020000000004 439.3070000000001 L 1406.6330000000003 439.3070000000001 L 1406.6330000000003 441.45700000000005 L 1408.8730000000003 441.45700000000005 L 1408.8730000000003 443.5160000000001 L 1410.4470000000003 443.5160000000001 L 1410.4470000000003 445.51400000000007 L 1410.4470000000003 449.02600000000007 L 1412.2030000000004 449.02600000000007 L 1412.2030000000004 457.80600000000004 L 1414.0190000000005 457.80600000000004 L 1414.0190000000005 474.57800000000003 L 1415.2910000000004 474.57800000000003 L 1415.2910000000004 504.12600000000003 L 1422.6780000000003 504.12600000000003 L 1422.6780000000003 510.12 L 1424.0710000000004 510.12 L 1424.0710000000004 512.421 L 1426.7960000000003 512.421 L 1426.7960000000003 511.45200000000006 L 1431.4580000000003 511.45200000000006 L 1431.4580000000003 509.57500000000005 L 1435.2120000000002 509.57500000000005 L 1435.2120000000002 497.4 L 1436.3620000000003 497.4 L 1436.3620000000003 509.51 L 1437.2100000000003 509.51 L 1461.0060000000003 509.51 L 1461.0060000000003 496.371 L 1479.2310000000002 496.371 L 1479.2310000000002 492.435 L 1499.5760000000002 492.435 L 1501.0290000000002 496.673 L 1507.2050000000002 496.673 L 1507.2050000000002 523.194 L 1508.3550000000002 523.194 L 1508.3550000000002 525.858 L 1520.4040000000002 525.858 L 1520.4040000000002 531.852 L 1525.0060000000003 531.852 L 1525.0060000000003 502.96999999999997 L 1535.1780000000003 502.96999999999997 L 1535.1780000000003 516.17 L 1537.0550000000003 514.293 L 1539.1440000000002 516.3820000000001 L 1539.1440000000002 521.196 L 1540.7480000000003 521.196 L 1540.7480000000003 517.2 L 1548.1960000000004 517.2 L 1548.1960000000004 515.1410000000001 L 1551.1630000000005 515.1410000000001 L 1551.1630000000005 517.2 L 1561.2750000000005 517.2 L 1561.2750000000005 523.1940000000001 L 1562.8490000000006 523.1940000000001 L 1562.8490000000006 518.2900000000001 L 1567.0870000000007 518.2900000000001 L 1567.0870000000007 515.263 L 1569.0250000000008 515.263 L 1569.0250000000008 521.4390000000001 L 1571.1440000000007 521.4390000000001 L 1571.1440000000007 525.7990000000001 L 1573.5660000000007 525.7990000000001 L 1573.5660000000007 522.4080000000001 L 1579.7420000000006 522.4080000000001 L 1580.9830000000006 521.1670000000001 L 1580.9830000000006 516.3530000000002 L 1581.5580000000007 516.3530000000002 L 1581.5580000000007 504.18300000000016 L 1582.1030000000007 504.18300000000016 C 1582.1030000000007 504.18300000000016 1586.5230000000008 485.1100000000002 1586.5840000000007 484.92800000000017 C 1586.6450000000007 484.74600000000015 1587.6130000000007 468.39800000000014 1587.6130000000007 468.39800000000014 L 1589.1270000000006 484.74600000000015 L 1594.3950000000007 504.1220000000001 L 1594.3950000000007 515.9900000000001 L 1596.2110000000007 515.9900000000001 L 1596.2110000000007 545.1140000000001 L 1597.5430000000008 545.1140000000001 L 1597.5430000000008 539.5430000000001 L 1598.693000000001 539.5430000000001 L 1598.693000000001 531.3080000000001 L 1602.871000000001 531.3080000000001 L 1602.871000000001 524.6480000000001 L 1611.348000000001 524.6480000000001 L 1611.348000000001 515.2630000000001 L 1631.935000000001 515.2630000000001 L 1631.935000000001 510.54000000000013 L 1634.2960000000012 510.54000000000013 L 1634.2960000000012 515.2630000000001 L 1636.2940000000012 515.2630000000001 L 1636.2940000000012 510.23700000000014 L 1637.6260000000013 510.23700000000014 L 1637.6260000000013 499.27800000000013 L 1638.7760000000014 499.27800000000013 L 1638.7760000000014 494.37400000000014 L 1640.4710000000014 494.37400000000014 L 1640.4710000000014 499.3390000000001 L 1641.5610000000013 499.3390000000001 L 1641.5610000000013 503.0320000000001 L 1649.0090000000014 503.0320000000001 L 1649.0090000000014 536.0920000000001 L 1650.4620000000014 536.0920000000001 L 1650.4620000000014 525.3140000000001 L 1674.0760000000014 525.3140000000001 L 1674.0760000000014 538.272 L 1679.5860000000014 538.272 L 1679.5860000000014 536.032 L 1686.9120000000014 536.032 L 1686.9120000000014 532.46 L 1689.1520000000014 532.46 L 1689.1520000000014 537.0010000000001 L 1690.0600000000013 537.0010000000001 L 1688.7890000000014 479.6000000000001 L 1690.4840000000013 481.2950000000001 L 1690.4840000000013 482.38500000000005 L 1691.8770000000013 482.38500000000005 L 1691.8770000000013 481.47700000000003 L 1695.2070000000012 481.47700000000003 L 1695.2070000000012 479.237 L 1701.8070000000012 479.237 L 1701.8070000000012 482.386 L 1704.108000000001 482.386 L 1704.108000000001 486.564 L 1705.622000000001 486.564 L 1705.622000000001 536.638 L 1709.679000000001 536.638 L 1709.679000000001 550.807 L 1727.904000000001 550.807 L 1733.959000000001 539.969 L 1736.442000000001 539.969 L 1742.8000000000009 553.1080000000001 L 1742.8610000000008 537.1840000000001 L 1745.8280000000009 537.1840000000001 L 1745.8280000000009 531.311 L 1752.731000000001 531.311 L 1752.731000000001 498.19100000000003 L 1768.353000000001 498.19100000000003 L 1768.353000000001 542.331 L 1772.834000000001 542.331 L 1772.834000000001 537.85 L 1777.496000000001 537.85 L 1777.496000000001 498.79600000000005 L 1786.760000000001 498.79600000000005 L 1786.760000000001 496.011 L 1802.2610000000009 496.011 L 1802.2610000000009 498.79600000000005 L 1799.960000000001 498.79600000000005 L 1799.960000000001 505.94100000000003 L 1802.6850000000009 505.94100000000003 L 1802.6850000000009 532.462 L 1800.566000000001 532.462 L 1800.566000000001 560.981 L 1807.469000000001 560.981 L 1806.379000000001 479.058 L 1809.709000000001 479.058 L 1809.709000000001 473.79 L 1812.131000000001 473.79 L 1812.131000000001 466.58500000000004 L 1814.311000000001 466.58500000000004 L 1814.311000000001 465.31300000000005 L 1815.280000000001 465.31300000000005 L 1815.280000000001 463.37500000000006 L 1814.129000000001 463.37500000000006 L 1814.129000000001 462.2250000000001 L 1819.397000000001 457.9870000000001 L 1859.238000000001 458.6530000000001 L 1867.170000000001 462.64900000000006 L 1867.170000000001 466.58500000000004 L 1869.592000000001 466.58500000000004 L 1869.592000000001 475.18300000000005 L 1877.403000000001 475.18300000000005 L 1877.403000000001 492.92400000000004 L 1881.3390000000009 492.92400000000004 L 1881.3390000000009 534.885 L 1882.671000000001 534.885 L 1882.671000000001 542.151 L 1889.029000000001 542.151 L 1889.029000000001 535.188 L 1892.844000000001 535.188 L 1892.844000000001 534.34 L 1894.509000000001 534.34 L 1894.509000000001 533.008 L 1893.056000000001 533.008 L 1893.056000000001 532.07 L 1894.509000000001 532.07 L 1894.509000000001 530.7080000000001 L 1892.995000000001 530.7080000000001 L 1892.995000000001 529.618 L 1894.479000000001 529.618 L 1894.479000000001 528.2560000000001 L 1892.9350000000009 528.2560000000001 L 1892.9350000000009 527.2270000000001 L 1894.5700000000008 527.2270000000001 L 1894.5700000000008 525.8650000000001 L 1892.7530000000008 525.8650000000001 L 1892.7530000000008 524.8050000000002 L 1894.539000000001 524.8050000000002 L 1894.539000000001 523.3520000000002 L 1892.722000000001 523.3520000000002 L 1892.722000000001 522.2620000000002 L 1894.4170000000008 522.2620000000002 L 1894.4170000000008 520.6880000000002 L 1892.6310000000008 520.6880000000002 L 1892.6310000000008 519.9010000000002 L 1894.3870000000009 519.9010000000002 L 1894.3870000000009 517.9630000000002 L 1892.510000000001 517.9630000000002 L 1892.510000000001 516.7520000000002 L 1902.046000000001 516.7520000000002 L 1902.046000000001 510.2730000000002 L 1919.969000000001 510.2730000000002 L 1919.969000000001 516.6310000000002 L 1937.104000000001 516.6310000000002 L 1937.104000000001 532.6460000000002 L 1941.918000000001 532.6460000000002 L 1941.918000000001 541.7590000000002 L 1948.094000000001 541.7590000000002 L 1948.094000000001 560.5900000000003 L 1951.787000000001 560.5900000000003 L 1951.787000000001 550.6300000000002 L 1950.152000000001 550.6300000000002 L 1950.152000000001 530.2850000000002 L 1952.604000000001 530.2850000000002 L 1952.604000000001 523.5940000000002 L 1955.571000000001 523.5940000000002 L 1955.571000000001 530.1640000000002 L 1959.9610000000011 530.1640000000002 L 1959.9610000000011 529.4680000000002 L 1958.4770000000012 529.4680000000002 L 1958.4770000000012 528.1060000000002 L 1959.9300000000012 528.1060000000002 L 1959.9300000000012 527.1370000000002 L 1958.3560000000011 527.1370000000002 L 1958.3560000000011 525.6540000000002 L 1959.840000000001 525.6540000000002 L 1959.840000000001 524.4130000000002 L 1958.417000000001 524.4130000000002 L 1958.417000000001 523.5350000000002 L 1959.9910000000011 523.5350000000002 L 1959.9910000000011 522.0520000000002 L 1958.417000000001 522.0520000000002 L 1958.417000000001 520.8710000000002 L 1959.810000000001 520.8710000000002 L 1959.810000000001 519.5390000000002 L 1958.2960000000012 519.5390000000002 L 1958.2960000000012 518.6010000000002 L 1959.810000000001 518.6010000000002 L 1959.810000000001 516.4210000000003 L 1958.5380000000011 516.4210000000003 L 1958.5380000000011 515.2400000000002 L 1972.252000000001 515.2400000000002 L 1972.252000000001 511.51600000000025 L 1975.401000000001 511.51600000000025 L 1975.401000000001 510.8200000000002 L 1976.339000000001 510.8200000000002 L 1976.339000000001 509.73000000000025 L 1973.8560000000011 509.73000000000025 L 1973.8560000000011 510.4570000000002 L 1972.040000000001 510.4570000000002 L 1972.040000000001 502.0710000000002 L 1997.6520000000012 502.0710000000002 L 1997.6520000000012 500.8300000000002 L 1998.9240000000011 500.8300000000002 L 1998.9240000000011 499.07400000000024 L 2000.801000000001 499.07400000000024 L 2000.801000000001 498.25700000000023 L 2004.2220000000011 498.25700000000023 L 2004.2220000000011 501.0120000000002 L 2006.4020000000012 501.0120000000002 L 2006.4020000000012 498.49900000000025 L 2012.396000000001 498.49900000000025 L 2012.396000000001 499.40700000000027 L 2013.7580000000012 499.40700000000027 L 2013.7580000000012 500.89000000000027 L 2026.867000000001 500.89000000000027 L 2026.867000000001 529.2270000000003 L 2028.986000000001 529.2270000000003 L 2028.986000000001 513.0600000000003 L 2030.772000000001 513.0600000000003 L 2030.772000000001 512.1820000000002 L 2032.5280000000012 512.1820000000002 L 2032.5280000000012 511.12200000000024 L 2035.4950000000013 511.12200000000024 L 2035.4950000000013 512.1820000000002 L 2037.7660000000012 512.1820000000002 L 2037.7660000000012 511.2430000000002 L 2039.0070000000012 511.2430000000002 L 2039.0070000000012 502.1910000000002 L 2040.5810000000013 502.1910000000002 L 2040.5810000000013 501.4340000000002 L 2063.1050000000014 501.4340000000002 L 2063.1050000000014 500.2530000000002 L 2064.709000000001 500.2530000000002 L 2064.709000000001 501.6760000000002 L 2066.253000000001 501.6760000000002 L 2066.253000000001 505.3390000000002 L 2076.425000000001 505.3390000000002 L 2076.425000000001 503.8250000000002 L 2077.788000000001 503.8250000000002 L 2077.788000000001 505.49000000000024 L 2084.297000000001 505.49000000000024 L 2084.297000000001 512.6650000000002 L 2097.012000000001 512.6650000000002 L 2097.012000000001 507.79100000000017 L 2103.7630000000013 507.79100000000017 L 2103.7630000000013 482.4510000000002 L 2107.0630000000015 482.4510000000002 L 2107.0630000000015 471.8250000000002 L 2109.3340000000017 471.8250000000002 L 2109.3340000000017 465.3160000000002 L 2113.7840000000015 465.3160000000002 L 2113.7840000000015 459.2910000000002 L 2117.3570000000013 459.2910000000002 L 2117.3570000000013 453.93200000000024 L 2119.8090000000016 453.93200000000024 L 2118.3260000000014 380.91000000000025 C 2118.3260000000014 380.91000000000025 2148.4800000000014 376.42900000000026 2192.9830000000015 376.79300000000023 L 2192.9830000000015 373.82600000000025 L 2210.3610000000017 373.82600000000025 L 2213.3890000000015 379.8200000000003 L 2213.3890000000015 506.85200000000026 L 2216.1140000000014 506.85200000000026 L 2214.479000000001 417.1180000000003 L 2218.1720000000014 416.8150000000003 L 2218.1720000000014 402.8890000000003 C 2218.1720000000014 402.8890000000003 2220.1100000000015 402.7070000000003 2220.1100000000015 402.8890000000003 C 2220.1100000000015 403.0710000000003 2220.1100000000015 396.7740000000003 2220.1100000000015 396.7740000000003 L 2224.7720000000013 396.7740000000003 L 2224.7720000000013 390.7800000000003 L 2254.501000000001 371.5250000000003 L 2285.563000000001 388.8420000000003 L 2285.805000000001 394.6550000000003 L 2290.588000000001 394.6550000000003 L 2290.588000000001 403.5560000000003 L 2293.797000000001 403.5560000000003 L 2293.797000000001 414.0920000000003 L 2298.4590000000007 414.0920000000003 L 2298.4590000000007 417.7850000000003 L 2308.3890000000006 417.7850000000003 L 2308.3890000000006 411.6700000000003 L 2309.7210000000005 411.6700000000003 L 2309.7210000000005 407.1890000000003 L 2307.9650000000006 407.1890000000003 L 2307.9650000000006 399.0150000000003 L 2312.082000000001 399.0150000000003 L 2312.082000000001 394.2320000000003 L 2313.8980000000006 394.2320000000003 L 2313.8980000000006 389.7510000000003 L 2317.5920000000006 389.7510000000003 L 2317.5920000000006 387.08700000000033 L 2328.6720000000005 387.08700000000033 L 2328.6720000000005 389.99300000000034 L 2334.1820000000007 389.99300000000034 L 2334.1820000000007 393.2630000000003 L 2342.1750000000006 393.2630000000003 L 2342.1750000000006 395.6240000000003 L 2339.7530000000006 395.6240000000003 C 2339.7530000000006 395.6240000000003 2354.5880000000006 400.3470000000003 2361.0060000000008 411.5480000000003 L 2361.0060000000008 416.0890000000003 L 2368.272000000001 416.0890000000003 L 2371.723000000001 169.4720000000003 L 2379.897000000001 169.4720000000003 L 2379.897000000001 168.1400000000003 L 2378.444000000001 167.3530000000003 L 2381.169000000001 166.4450000000003 L 2381.230000000001 164.9310000000003 L 2378.808000000001 164.9310000000003 L 2378.808000000001 162.8720000000003 L 2381.714000000001 162.8720000000003 L 2381.714000000001 161.2370000000003 L 2379.474000000001 160.5100000000003 L 2379.474000000001 159.60200000000032 L 2381.5330000000013 159.60200000000032 L 2382.4110000000014 158.72400000000033 L 2389.7680000000014 158.72400000000033 L 2397.5180000000014 129.81200000000032 L 2398.6080000000015 125.08900000000033 L 2400.7270000000017 125.08900000000033 L 2400.7270000000017 113.70600000000033 L 2398.4260000000017 113.70600000000033 L 2398.4260000000017 112.37400000000034 L 2400.364000000002 112.37400000000034 L 2400.364000000002 100.38500000000033 L 2398.4260000000017 100.38500000000033 L 2398.4260000000017 97.84200000000033 L 2399.2130000000016 97.84200000000033 L 2399.2130000000016 99.11400000000033 L 2400.2420000000016 99.11400000000033 L 2400.2420000000016 95.72300000000033 L 2399.1520000000014 94.63300000000032 L 2399.1520000000014 87.85100000000033 L 2398.3650000000016 87.85100000000033 L 2398.3650000000016 86.39800000000032 L 2399.5460000000016 85.21700000000033 L 2399.5460000000016 74.403 L 2398.123000000002 74.403 L 2398.123000000002 73.37400000000001 L 2399.697000000002 73.37400000000001 L 2399.697000000002 60.477 L 2399.697000000002 49.335 L 2399.273000000002 36.862 L 2400.787000000002 49.396 L 2401.392000000002 60.174 L 2401.937000000002 65.563 L 2401.1500000000024 65.563 L 2401.1500000000024 73.19200000000001 L 2403.0880000000025 73.19200000000001 L 2403.0880000000025 85.665 L 2403.7540000000026 86.331 L 2403.7540000000026 87.3 L 2402.8460000000027 87.3 L 2402.8460000000027 98.259 L 2404.420000000003 98.259 L 2404.420000000003 100.863 L 2402.724000000003 100.863 L 2402.724000000003 112.125 L 2405.207000000003 112.125 L 2405.207000000003 113.941 L 2403.027000000003 113.941 L 2403.027000000003 125.022 L 2405.8730000000032 125.022 L 2416.5900000000033 157.234 L 2424.7040000000034 157.234 L 2424.7040000000034 154.691 L 2427.308000000003 154.691 L 2427.308000000003 159.838 L 2424.9470000000033 159.838 L 2424.9470000000033 161.83599999999998 L 2427.551000000003 161.83599999999998 L 2427.551000000003 163.59199999999998 L 2424.887000000003 163.59199999999998 L 2424.887000000003 165.28699999999998 L 2427.4910000000027 165.28699999999998 L 2427.4910000000027 167.28499999999997 L 2426.0380000000027 167.28499999999997 L 2426.0380000000027 168.61699999999996 L 2434.9390000000026 172.00799999999995 L 2449.1070000000027 383.02199999999993 L 2453.5270000000028 383.02199999999993 L 2453.5270000000028 379.02599999999995 L 2480.108000000003 379.02599999999995 L 2484.1650000000027 506.30099999999993 L 2486.8900000000026 506.30099999999993 L 2485.679000000003 474.08899999999994 L 2489.070000000003 474.1499999999999 L 2489.554000000003 472.87799999999993 L 2497.0020000000027 472.87799999999993 L 2497.0020000000027 473.6049999999999 L 2498.1520000000028 473.6049999999999 L 2498.1520000000028 460.6469999999999 L 2501.1800000000026 460.6469999999999 L 2501.1800000000026 446.4179999999999 L 2505.6000000000026 446.4179999999999 L 2505.6000000000026 429.04 C 2505.6000000000026 429.04 2510.8680000000027 429.343 2510.8680000000027 429.04 C 2510.8680000000027 428.737 2510.8680000000027 422.137 2510.8680000000027 422.137 L 2522.8570000000027 411.48 L 2539.266000000003 411.48 L 2559.3080000000027 411.48 L 2571.963000000003 421.28900000000004 L 2571.963000000003 428.13100000000003 L 2577.836000000003 428.13100000000003 L 2577.836000000003 445.206 L 2584.617000000003 445.206 L 2584.617000000003 448.112 L 2592.609000000003 448.112 L 2592.609000000003 651.558 L 32.95 651.558 C 32.95 651.559 32.161 490.154 32.989 490.982 z" stroke-linecap="round" />
</g>
</svg>